<svg width="40" height="41" viewBox="0 0 40 41" fill="none" xmlns="http://www.w3.org/2000/svg">
<g clip-path="url(#clip0_1_216)">
<path d="M6.99997 32.2819C6.99997 33.7828 8.24774 35.0006 9.78568 35.0006H30.2143C31.7522 35.0006 33 33.7828 33 32.2819V16.8756H6.99997V32.2819ZM25.5714 21.1803C25.5714 20.8065 25.8848 20.5006 26.2678 20.5006H28.5893C28.9723 20.5006 29.2857 20.8065 29.2857 21.1803V23.4459C29.2857 23.8198 28.9723 24.1256 28.5893 24.1256H26.2678C25.8848 24.1256 25.5714 23.8198 25.5714 23.4459V21.1803ZM25.5714 28.4303C25.5714 28.0565 25.8848 27.7506 26.2678 27.7506H28.5893C28.9723 27.7506 29.2857 28.0565 29.2857 28.4303V30.6959C29.2857 31.0698 28.9723 31.3756 28.5893 31.3756H26.2678C25.8848 31.3756 25.5714 31.0698 25.5714 30.6959V28.4303ZM18.1428 21.1803C18.1428 20.8065 18.4562 20.5006 18.8393 20.5006H21.1607C21.5437 20.5006 21.8571 20.8065 21.8571 21.1803V23.4459C21.8571 23.8198 21.5437 24.1256 21.1607 24.1256H18.8393C18.4562 24.1256 18.1428 23.8198 18.1428 23.4459V21.1803ZM18.1428 28.4303C18.1428 28.0565 18.4562 27.7506 18.8393 27.7506H21.1607C21.5437 27.7506 21.8571 28.0565 21.8571 28.4303V30.6959C21.8571 31.0698 21.5437 31.3756 21.1607 31.3756H18.8393C18.4562 31.3756 18.1428 31.0698 18.1428 30.6959V28.4303ZM10.7143 21.1803C10.7143 20.8065 11.0276 20.5006 11.4107 20.5006H13.7321C14.1151 20.5006 14.4285 20.8065 14.4285 21.1803V23.4459C14.4285 23.8198 14.1151 24.1256 13.7321 24.1256H11.4107C11.0276 24.1256 10.7143 23.8198 10.7143 23.4459V21.1803ZM10.7143 28.4303C10.7143 28.0565 11.0276 27.7506 11.4107 27.7506H13.7321C14.1151 27.7506 14.4285 28.0565 14.4285 28.4303V30.6959C14.4285 31.0698 14.1151 31.3756 13.7321 31.3756H11.4107C11.0276 31.3756 10.7143 31.0698 10.7143 30.6959V28.4303ZM30.2143 9.62561H27.4285V6.90686C27.4285 6.40842 27.0107 6.00061 26.5 6.00061H24.6428C24.1321 6.00061 23.7143 6.40842 23.7143 6.90686V9.62561H16.2857V6.90686C16.2857 6.40842 15.8678 6.00061 15.3571 6.00061H13.5C12.9893 6.00061 12.5714 6.40842 12.5714 6.90686V9.62561H9.78568C8.24774 9.62561 6.99997 10.8434 6.99997 12.3444V15.0631H33V12.3444C33 10.8434 31.7522 9.62561 30.2143 9.62561Z" fill="#884AFF"/>
</g>
<defs>
<clipPath id="clip0_1_216">
<rect width="26" height="29" fill="white" transform="translate(6.99997 6)"/>
</clipPath>
</defs>
</svg>
