<svg width="30" height="30" viewBox="0 0 30 30" fill="none" xmlns="http://www.w3.org/2000/svg">
<g clip-path="url(#clip0_1_51)">
<path d="M12.324 25.6047H16.308V15.7527H19.62L20.136 11.9126H16.308V9.51264C16.2732 9.01288 16.4132 8.51656 16.704 8.10864C16.9048 7.91688 17.1457 7.77218 17.4092 7.68501C17.6728 7.59784 17.9525 7.57039 18.228 7.60464H20.268V4.17264C19.2814 4.04415 18.2868 3.988 17.292 4.00464C16.6335 3.97613 15.976 4.07924 15.3578 4.30796C14.7397 4.53667 14.1734 4.88639 13.692 5.33664C13.2184 5.83285 12.8525 6.42154 12.6171 7.0658C12.3817 7.71007 12.2819 8.39601 12.324 9.08064V11.9126H9V15.7527H12.324V25.6047Z" fill="#FAFAFA"/>
</g>
<defs>
<clipPath id="clip0_1_51">
<rect width="30" height="30" fill="white"/>
</clipPath>
</defs>
</svg>
