<svg width="40" height="41" viewBox="0 0 40 41" fill="none" xmlns="http://www.w3.org/2000/svg">
<g clip-path="url(#clip0_1_208)">
<path d="M35 20.5C35 28.509 28.509 35 20.5 35C12.491 35 5.99997 28.509 5.99997 20.5C5.99997 12.491 12.491 6 20.5 6C28.509 6 35 12.491 35 20.5ZM8.92716 22.7146L10.7244 23.0771C11.1696 23.1678 11.6306 23.0262 11.9529 22.7033L12.8252 21.8311C13.4765 21.1287 14.5867 21.3553 15.0002 22.1879L15.5269 23.2357C15.7478 23.7795 16.3539 24.074 16.9599 24.074C17.8209 24.074 18.4383 23.298 18.189 22.4711L17.8549 21.3439C17.5886 20.4717 18.2457 19.5938 19.1576 19.5938H19.2879C19.9959 19.5938 20.7549 19.2143 21.174 18.5855L21.78 17.6736C22.0972 17.1979 22.0802 16.5691 21.7347 16.1047L20.8228 14.8869C20.2394 14.1109 20.6359 12.9895 21.5818 12.7516L22.5447 12.4627C22.9695 12.4061 23.315 12.1059 23.4793 11.698L24.4025 9.38088C23.1847 8.95211 21.8707 8.71875 20.449 8.71875C13.992 8.71875 8.66774 13.992 8.66774 20.5C8.66774 21.259 8.79009 22.001 8.92716 22.7146ZM31.5109 23.0148L30.616 23.2697C30.2365 23.3717 29.8343 23.2188 29.6248 22.8902L29.5115 22.7146C29.1716 22.1822 28.5826 21.8084 27.9482 21.8084C27.3195 21.8084 26.6795 22.1822 26.3849 22.7146L26.0394 23.2527C25.9601 23.3773 25.8525 23.485 25.7222 23.5076L23.6209 24.6971C22.6467 25.2691 22.2275 26.5322 22.658 27.6027L23.0205 28.3051C23.5076 29.3926 24.7593 29.9193 25.8299 29.5002L26.0224 29.3982C26.5945 29.234 27.2289 29.3246 27.7216 29.6814L27.8066 29.7438C29.9136 28.0729 31.4373 25.6996 32.0207 22.9752C31.8507 22.9582 31.6808 22.9695 31.5109 23.0148ZM14.8416 26.8154L16.6541 27.2686C17.1412 27.3932 17.634 27.0986 17.7529 26.6115C17.8775 26.1244 17.583 25.6316 17.0959 25.5127L15.2834 25.0596C14.7963 24.935 14.3035 25.2295 14.1845 25.7166C14.0599 26.2037 14.3545 26.6965 14.8416 26.8154ZM19.3955 24.5838C19.2709 25.0709 19.5654 25.5637 20.0525 25.6826C20.5396 25.8072 21.0324 25.5127 21.1513 25.0256L21.6045 23.2131C21.7291 22.726 21.4345 22.2332 20.9474 22.1143C20.4603 21.9896 19.9675 22.2842 19.8486 22.7713L19.3955 24.5838ZM24.2213 12.8422L23.315 14.6547C23.0884 15.1021 23.2697 15.6516 23.7172 15.8725C24.1646 16.099 24.714 15.9178 24.9349 15.4703L25.8412 13.6578C26.0677 13.2104 25.8865 12.6609 25.439 12.44C24.9916 12.2135 24.4422 12.3947 24.2213 12.8422Z" fill="#884AFF"/>
</g>
<defs>
<clipPath id="clip0_1_208">
<rect width="29" height="29" fill="white" transform="translate(5.99997 6)"/>
</clipPath>
</defs>
</svg>
