<svg width="30" height="30" viewBox="0 0 30 30" fill="none" xmlns="http://www.w3.org/2000/svg">
<g clip-path="url(#clip0_1_58)">
<path d="M20.56 7.74403C20.3037 7.74403 20.0531 7.82004 19.84 7.96244C19.6269 8.10485 19.4607 8.30726 19.3627 8.54406C19.2646 8.78087 19.2389 9.04146 19.2889 9.29286C19.3389 9.54426 19.4623 9.77519 19.6436 9.95644C19.8248 10.1377 20.0558 10.2611 20.3072 10.3111C20.5586 10.3611 20.8191 10.3355 21.056 10.2374C21.2928 10.1393 21.4952 9.97317 21.6376 9.76005C21.78 9.54692 21.856 9.29635 21.856 9.04003C21.8562 8.69551 21.7228 8.36433 21.484 8.11603C21.3656 7.99147 21.2218 7.89381 21.0624 7.82963C20.903 7.76545 20.7317 7.73626 20.56 7.74403Z" fill="#FAFAFA"/>
<path d="M23.788 5.812C22.549 4.68154 20.9292 4.06016 19.252 4.072C18.4 4 16.948 4 14.8 4C12.652 4 11.2 4 10.348 4.072C8.67084 4.06016 7.05097 4.68154 5.812 5.812C4.68333 7.04729 4.062 8.66276 4.072 10.336C4.024 11.168 4 12.656 4 14.8C4 16.948 4 18.4001 4.072 19.2521C4.06015 20.9291 4.68153 22.5491 5.812 23.788C7.05097 24.9185 8.67084 25.5399 10.348 25.528C11.2 25.5999 12.652 25.6 14.8 25.6C16.948 25.6 18.4 25.5999 19.252 25.528C20.9292 25.5399 22.549 24.9185 23.788 23.788C24.9185 22.5491 25.5398 20.9291 25.528 19.2521C25.6 18.4001 25.6 16.948 25.6 14.8C25.6 12.652 25.6 11.2 25.528 10.336C25.538 8.66276 24.9167 7.04729 23.788 5.812ZM23.668 15.88V17.356C23.668 17.692 23.668 18.1481 23.668 18.7121C23.6543 19.1983 23.6103 19.6832 23.536 20.164C23.4792 20.5075 23.3908 20.8449 23.272 21.1721C23.0792 21.6357 22.7934 22.0548 22.4322 22.4037C22.071 22.7525 21.6421 23.0236 21.172 23.2001C20.8448 23.3188 20.5074 23.4072 20.164 23.4639C19.6832 23.5382 19.1983 23.5823 18.712 23.5959H17.356H12.244H10.888C10.4017 23.5823 9.91677 23.5382 9.436 23.4639C9.09258 23.4072 8.75515 23.3188 8.428 23.2001C7.97119 23.0154 7.55622 22.7406 7.20781 22.3922C6.8594 22.0438 6.58468 21.6289 6.4 21.1721C6.28115 20.8449 6.19277 20.5075 6.136 20.164C6.06173 19.6832 6.01764 19.1983 6.004 18.7121C6.004 18.1481 6.004 17.692 6.004 17.356V15.88C6.004 15.22 6.004 14.8601 6.004 14.8C6.004 14.74 6.004 14.38 6.004 13.72V12.244C6.004 11.908 6.004 11.452 6.004 10.888C6.01764 10.4017 6.06173 9.91677 6.136 9.436C6.19277 9.09259 6.28115 8.75515 6.4 8.428C6.58468 7.97119 6.8594 7.55623 7.20781 7.20782C7.55622 6.85941 7.97119 6.58468 8.428 6.4C8.75515 6.28115 9.09258 6.19277 9.436 6.136C9.91677 6.06173 10.4017 6.01765 10.888 6.004H12.244H17.356H18.712C19.1983 6.01765 19.6832 6.06173 20.164 6.136C20.5074 6.19277 20.8448 6.28115 21.172 6.4C21.6288 6.58468 22.0438 6.85941 22.3922 7.20782C22.7406 7.55623 23.0153 7.97119 23.2 8.428C23.3188 8.75515 23.4072 9.09259 23.464 9.436C23.5383 9.91677 23.5823 10.4017 23.596 10.888C23.596 11.452 23.596 11.908 23.596 12.244V13.72C23.596 14.38 23.596 14.74 23.596 14.8C23.596 14.8601 23.656 15.22 23.668 15.88Z" fill="#FAFAFA"/>
<path d="M14.8 9.25599C14.0715 9.25442 13.3499 9.39674 12.6765 9.6748C12.0032 9.95285 11.3914 10.3611 10.8763 10.8763C10.3612 11.3914 9.95285 12.0032 9.6748 12.6765C9.39675 13.3499 9.25443 14.0716 9.25599 14.8C9.25443 15.5285 9.39675 16.2502 9.6748 16.9235C9.95285 17.5969 10.3612 18.2087 10.8763 18.7238C11.3914 19.2389 12.0032 19.6472 12.6765 19.9253C13.3499 20.2033 14.0715 20.3456 14.8 20.344C15.5285 20.3456 16.2501 20.2033 16.9235 19.9253C17.5968 19.6472 18.2086 19.2389 18.7237 18.7238C19.2388 18.2087 19.6471 17.5969 19.9252 16.9235C20.2033 16.2502 20.3456 15.5285 20.344 14.8C20.3456 14.0716 20.2033 13.3499 19.9252 12.6765C19.6471 12.0032 19.2388 11.3914 18.7237 10.8763C18.2086 10.3611 17.5968 9.95285 16.9235 9.6748C16.2501 9.39674 15.5285 9.25442 14.8 9.25599ZM17.344 17.344C16.6616 17.9799 15.7589 18.3261 14.8263 18.3097C13.8936 18.2932 13.0038 17.9154 12.3442 17.2558C11.6846 16.5962 11.3068 15.7064 11.2904 14.7738C11.2739 13.8411 11.6201 12.9385 12.256 12.256C12.931 11.5818 13.846 11.2032 14.8 11.2032C15.754 11.2032 16.669 11.5818 17.344 12.256C18.0182 12.931 18.3968 13.846 18.3968 14.8C18.3968 15.754 18.0182 16.669 17.344 17.344Z" fill="#FAFAFA"/>
</g>
<defs>
<clipPath id="clip0_1_58">
<rect width="30" height="30" fill="white"/>
</clipPath>
</defs>
</svg>
