<svg width="60" height="36" viewBox="0 0 60 36" fill="none" xmlns="http://www.w3.org/2000/svg">
<path d="M30 10C32.2091 10 34 8.20914 34 6C34 3.79086 32.2091 2 30 2C27.7909 2 26 3.79086 26 6C26 8.20914 27.7909 10 30 10Z" stroke="#514D59" stroke-width="4" stroke-linecap="round" stroke-linejoin="round"/>
<path d="M13 34C19.0751 34 24 29.0751 24 23C24 16.9249 19.0751 12 13 12C6.92487 12 2 16.9249 2 23C2 29.0751 6.92487 34 13 34Z" stroke="#514D59" stroke-width="4" stroke-linecap="round" stroke-linejoin="round"/>
<path d="M8 23C8 21.6739 8.52678 20.4021 9.46447 19.4645C10.4021 18.5268 11.6739 18 13 18" stroke="#514D59" stroke-width="4" stroke-linecap="round" stroke-linejoin="round"/>
<path d="M47 34C53.0751 34 58 29.0751 58 23C58 16.9249 53.0751 12 47 12C40.9249 12 36 16.9249 36 23C36 29.0751 40.9249 34 47 34Z" stroke="#514D59" stroke-width="4" stroke-linecap="round" stroke-linejoin="round"/>
<path d="M42 23C42 21.6739 42.5268 20.4021 43.4645 19.4645C44.4021 18.5268 45.6739 18 47 18" stroke="#514D59" stroke-width="4" stroke-linecap="round" stroke-linejoin="round"/>
<path d="M33.98 6.40002C38.0242 7.21871 41.7142 9.27337 44.54 12.28" stroke="#514D59" stroke-width="4" stroke-linecap="round" stroke-linejoin="round"/>
<path d="M15.46 12.28C18.2858 9.27337 21.9758 7.21871 26.02 6.40002" stroke="#514D59" stroke-width="4" stroke-linecap="round" stroke-linejoin="round"/>
</svg>
