<svg width="30" height="30" viewBox="0 0 30 30" fill="none" xmlns="http://www.w3.org/2000/svg">
<path d="M28.125 13H1.875C1.53 13 1.25 13.392 1.25 13.875V15.625C1.25 16.108 1.53 16.5 1.875 16.5H28.125C28.47 16.5 28.75 16.108 28.75 15.625V13.875C28.75 13.392 28.47 13 28.125 13Z" fill="#514D59"/>
<path d="M14.375 21H1.875C1.53 21 1.25 21.392 1.25 21.875V23.625C1.25 24.108 1.53 24.5 1.875 24.5H14.375C14.72 24.5 15 24.108 15 23.625V21.875C15 21.392 14.72 21 14.375 21Z" fill="#514D59"/>
<path d="M28.125 5H15.625C15.28 5 15 5.392 15 5.875V7.625C15 8.108 15.28 8.5 15.625 8.5H28.125C28.47 8.5 28.75 8.108 28.75 7.625V5.875C28.75 5.392 28.47 5 28.125 5Z" fill="#514D59"/>
</svg>
