<svg width="30" height="30" viewBox="0 0 30 30" fill="none" xmlns="http://www.w3.org/2000/svg">
<g clip-path="url(#clip0_1_251)">
<path d="M14.9998 24C16.2613 24 17.2845 22.9928 17.2845 21.75H12.7152C12.7152 22.9928 13.7384 24 14.9998 24ZM22.6923 18.7368C22.0023 18.0069 20.7113 16.909 20.7113 13.3125C20.7113 10.5809 18.7656 8.39414 16.142 7.85766V7.125C16.142 6.50379 15.6306 6 14.9998 6C14.3691 6 13.8577 6.50379 13.8577 7.125V7.85766C11.2341 8.39414 9.28841 10.5809 9.28841 13.3125C9.28841 16.909 7.99734 18.0069 7.30734 18.7368C7.09306 18.9635 6.99806 19.2346 6.99984 19.5C7.00377 20.0766 7.46341 20.625 8.14627 20.625H21.8534C22.5363 20.625 22.9963 20.0766 22.9998 19.5C23.0016 19.2346 22.9066 18.9632 22.6923 18.7368Z" fill="#514D59"/>
</g>
<circle cx="19.5" cy="11.5" r="4.5" fill="#EB001B"/>
<defs>
<clipPath id="clip0_1_251">
<rect width="16" height="18" fill="white" transform="translate(7 6)"/>
</clipPath>
</defs>
</svg>
