<svg width="30" height="30" viewBox="0 0 30 30" fill="none" xmlns="http://www.w3.org/2000/svg">
<path d="M16.875 16.5625H13.125C11.5508 16.5642 10.0416 17.1904 8.92847 18.3035C7.81535 19.4166 7.18924 20.9258 7.1875 22.5C7.18749 22.5605 7.20503 22.6196 7.23797 22.6703C7.27092 22.721 7.31787 22.7611 7.37312 22.7856C7.49062 22.8378 10.3003 24.0625 15 24.0625C19.6997 24.0625 22.5094 22.8378 22.6269 22.7856C22.6821 22.7611 22.7291 22.721 22.762 22.6703C22.795 22.6196 22.8125 22.5605 22.8125 22.5C22.8108 20.9258 22.1846 19.4166 21.0715 18.3035C19.9584 17.1904 18.4492 16.5642 16.875 16.5625Z" fill="#514D59"/>
<path d="M15 15.0001C17.5041 15.0001 19.375 12.3713 19.375 10.021C19.375 8.86067 18.9141 7.74788 18.0936 6.9274C17.2731 6.10693 16.1603 5.646 15 5.646C13.8397 5.646 12.7269 6.10693 11.9064 6.9274C11.0859 7.74788 10.625 8.86067 10.625 10.021C10.625 12.3713 12.4959 15.0001 15 15.0001Z" fill="#514D59"/>
</svg>
