<svg width="30" height="31" viewBox="0 0 30 31" fill="none" xmlns="http://www.w3.org/2000/svg">
<g clip-path="url(#clip0_1_223)">
<path d="M29.5898 26.4395L23.748 20.5977C23.4843 20.334 23.1269 20.1875 22.7519 20.1875H21.7968C23.414 18.1191 24.375 15.5176 24.375 12.6875C24.375 5.95508 18.9199 0.5 12.1875 0.5C5.45505 0.5 -3.05176e-05 5.95508 -3.05176e-05 12.6875C-3.05176e-05 19.4199 5.45505 24.875 12.1875 24.875C15.0175 24.875 17.6191 23.9141 19.6875 22.2969V23.252C19.6875 23.627 19.834 23.9844 20.0976 24.248L25.9394 30.0898C26.4902 30.6406 27.3808 30.6406 27.9258 30.0898L29.584 28.4316C30.1347 27.8809 30.1347 26.9902 29.5898 26.4395ZM12.1875 20.1875C8.04489 20.1875 4.68747 16.8359 4.68747 12.6875C4.68747 8.54492 8.03903 5.1875 12.1875 5.1875C16.33 5.1875 19.6875 8.53906 19.6875 12.6875C19.6875 16.8301 16.3359 20.1875 12.1875 20.1875Z" fill="white"/>
</g>
<defs>
<clipPath id="clip0_1_223">
<rect width="30" height="30" fill="white" transform="translate(-3.05176e-05 0.5)"/>
</clipPath>
</defs>
</svg>
