<svg width="40" height="41" viewBox="0 0 40 41" fill="none" xmlns="http://www.w3.org/2000/svg">
<path d="M28.3571 13.25H25.5742L25.575 8.71875C25.575 7.21777 24.3272 6 22.7892 6H17.2178C15.6799 6 14.4321 7.21777 14.4321 8.71875L14.4285 13.25H11.6428C10.1048 13.25 8.85706 14.4678 8.85706 15.9688V30.4688C8.85706 31.9697 10.1048 33.1875 11.6428 33.1875H12.5742L12.5713 34.0938C12.5713 34.5979 12.9834 35 13.4999 35H15.3571C15.8736 35 16.2856 34.5979 16.2856 34.0938L16.2914 33.1875H23.72L23.7142 34.0938C23.7142 34.5964 24.1277 35 24.6428 35H26.4999C27.015 35 27.4285 34.5964 27.4285 34.0938L27.4313 33.1875H28.3571C29.895 33.1875 31.1428 31.9697 31.1428 30.4688V15.9688C31.1428 14.4678 29.895 13.25 28.3571 13.25ZM17.22 8.71875H22.7914V13.25H17.22V8.71875ZM26.4999 27.75H13.4999C12.9892 27.75 12.5713 27.3422 12.5713 26.8438C12.5713 26.3453 12.9892 25.9375 13.4999 25.9375H26.4999C27.0107 25.9375 27.4285 26.3453 27.4285 26.8438C27.4285 27.3422 27.0106 27.75 26.4999 27.75ZM26.4999 20.5H13.4999C12.9892 20.5 12.5713 20.0922 12.5713 19.5938C12.5713 19.0953 12.9892 18.6875 13.4999 18.6875H26.4999C27.0106 18.6875 27.4285 19.0953 27.4285 19.5938C27.4285 20.0922 27.0106 20.5 26.4999 20.5Z" fill="#884AFF"/>
</svg>
