<svg width="30" height="30" viewBox="0 0 30 30" fill="none" xmlns="http://www.w3.org/2000/svg">
<g clip-path="url(#clip0_1_44)">
<path d="M25.012 6.41418C24.1404 6.90299 23.1901 7.23598 22.204 7.39818C21.8015 6.97119 21.3185 6.62798 20.7829 6.3883C20.2473 6.14862 19.6695 6.01719 19.0829 6.00158C18.4963 5.98597 17.9124 6.08648 17.3648 6.29733C16.8172 6.50817 16.3167 6.8252 15.892 7.23018C15.4644 7.6258 15.1248 8.10698 14.8953 8.64244C14.6658 9.17791 14.5516 9.75567 14.56 10.3382C14.5597 10.6731 14.5959 11.0071 14.668 11.3342C12.9029 11.2374 11.1777 10.7714 9.604 9.96618C8.06672 9.17257 6.71029 8.06944 5.62 6.72618C5.2241 7.38687 5.0089 8.14006 4.996 8.91018C4.98974 9.63849 5.16721 10.3566 5.512 10.9982C5.85775 11.6174 6.34756 12.1443 6.94 12.5342C6.24112 12.504 5.55897 12.3109 4.948 11.9702C4.92563 12.9834 5.27574 13.9697 5.932 14.7421C6.55806 15.5414 7.44629 16.0939 8.44 16.3021C8.0486 16.4045 7.6443 16.449 7.24 16.4341C6.95843 16.4348 6.67735 16.4107 6.4 16.3621C6.68122 17.2404 7.23321 18.0072 7.97689 18.5526C8.72058 19.0979 9.61779 19.3939 10.54 19.3981C8.97674 20.6098 7.0455 21.2493 5.068 21.2101C4.71224 21.2284 4.35577 21.2284 4 21.2101C6.00742 22.5137 8.35045 23.2058 10.744 23.2021C12.2453 23.2292 13.7398 22.9936 15.16 22.5061C16.4441 22.0885 17.6401 21.4376 18.688 20.5861C19.6666 19.7773 20.5235 18.8316 21.232 17.7781C21.9279 16.7609 22.466 15.6443 22.828 14.4661C23.1845 13.3401 23.3706 12.1672 23.38 10.9862C23.38 10.7342 23.38 10.5422 23.38 10.4222C24.245 9.79483 24.9959 9.02363 25.6 8.14218C24.7868 8.47693 23.9303 8.69508 23.056 8.79018C23.9844 8.27326 24.6831 7.42455 25.012 6.41418Z" fill="#FAFAFA"/>
</g>
<defs>
<clipPath id="clip0_1_44">
<rect width="30" height="30" fill="white"/>
</clipPath>
</defs>
</svg>
